<svg xmlns="http://www.w3.org/2000/svg" width="32" height="32" viewBox="0 0 82.624 78">
  <g transform="translate(82.624, 0) scale(-1, 1)">
    <g transform="translate(-380 -22.358)">
      <path d="M111.252,78c22.882,0,37.4-14.625,37.4-39s-14.521-39-37.7-39h-14.2c-6.494,0-9.74,0-11.124,2.13s-.066,5.1,2.571,11.031L98,35.2c.832,1.872,1.247,2.808,1.247,3.8S98.827,40.928,98,42.8L88.2,64.838c-2.637,5.934-3.955,8.9-2.571,11.031S90.263,78,96.757,78Z" transform="translate(311.515 22.358)" fill="#fccd59"/>
      <path d="M17.519,0H34.363L56.294,33.805a7.8,7.8,0,0,1,.1,8.328L34.363,78H17.278a4.68,4.68,0,0,1-4.008-7.1L33.147,37.937,13.571,7.193A4.68,4.68,0,0,1,17.519,0" transform="translate(369.865 22.358)" fill="#222831"/>
      <path d="M57.768,34.642l-6.242-9.736L35.368,0H18.525a4.68,4.68,0,0,0-4.211,6.719L31.493,33.76l2.66,4.177,0,0,6.986,11a15.6,15.6,0,0,1,2.053,11.784l-1.6,7.136.025-.022L57.4,42.133a7.8,7.8,0,0,0,.366-7.492" transform="translate(368.859 22.358)" fill="#434953"/>
    </g>
  </g>
</svg>
